<group>
ampeg_attack=0.004000
ampeg_release=0.300000

<region>
lovel=0
hivel=77
sample=Saxello/Non-Vibrato/BrettSaxello_SusNV_MainSpirit_A#2_vl2_rr2.wav
pitch_keycenter=58
lokey=58
hikey=60
tune=-1
volume=0.326551

<region>
lovel=78
hivel=127
sample=Saxello/Non-Vibrato/BrettSaxello_SusNV_MainSpirit_A#2_vl3_rr1.wav
pitch_keycenter=58
lokey=58
hikey=60
tune=1
volume=-2.645885

<region>
lovel=0
hivel=77
sample=Saxello/Non-Vibrato/BrettSaxello_SusNV_MainSpirit_D3_vl2_rr2.wav
pitch_keycenter=62
lokey=61
hikey=64
tune=1
volume=-0.242337

<region>
lovel=78
hivel=127
sample=Saxello/Non-Vibrato/BrettSaxello_SusNV_MainSpirit_D3_vl3_rr1.wav
pitch_keycenter=62
lokey=61
hikey=64
tune=3
volume=0.346102

<region>
lovel=0
hivel=77
sample=Saxello/Non-Vibrato/BrettSaxello_SusNV_MainSpirit_F#3_vl2_rr2.wav
pitch_keycenter=66
lokey=65
hikey=68
volume=0.992029

<region>
lovel=78
hivel=127
sample=Saxello/Non-Vibrato/BrettSaxello_SusNV_MainSpirit_F#3_vl3_rr1.wav
pitch_keycenter=66
lokey=65
hikey=68
tune=1
volume=0.099201

<region>
lovel=0
hivel=77
sample=Saxello/Non-Vibrato/BrettSaxello_SusNV_MainSpirit_A#3_vl2_rr2.wav
pitch_keycenter=70
lokey=69
hikey=72
volume=8.051705

<region>
lovel=78
hivel=127
sample=Saxello/Non-Vibrato/BrettSaxello_SusNV_MainSpirit_A#3_vl3_rr1.wav
pitch_keycenter=70
lokey=69
hikey=72
tune=1
volume=-1.156345

<region>
lovel=0
hivel=77
sample=Saxello/Non-Vibrato/BrettSaxello_SusNV_MainSpirit_D4_vl2_rr2.wav
pitch_keycenter=74
lokey=73
hikey=76
volume=1.968981

<region>
lovel=78
hivel=127
sample=Saxello/Non-Vibrato/BrettSaxello_SusNV_MainSpirit_D4_vl3_rr1.wav
pitch_keycenter=74
lokey=73
hikey=76
volume=-5.423233

<region>
lovel=0
hivel=77
sample=Saxello/Non-Vibrato/BrettSaxello_SusNV_MainSpirit_F#4_vl2_rr2.wav
pitch_keycenter=78
lokey=77
hikey=80
volume=6.983600

<region>
lovel=78
hivel=127
sample=Saxello/Non-Vibrato/BrettSaxello_SusNV_MainSpirit_F#4_vl3_rr1.wav
pitch_keycenter=78
lokey=77
hikey=80
volume=-1.310712

<region>
lovel=0
hivel=77
sample=Saxello/Non-Vibrato/BrettSaxello_SusNV_MainSpirit_A#4_vl2_rr2.wav
pitch_keycenter=82
lokey=81
hikey=85
volume=9.137697

<region>
lovel=78
hivel=127
sample=Saxello/Non-Vibrato/BrettSaxello_SusNV_MainSpirit_A#4_vl3_rr1.wav
pitch_keycenter=82
lokey=81
hikey=85
volume=-3.175948

<region>
lovel=0
hivel=77
sample=Saxello/Non-Vibrato/BrettSaxello_SusNV_MainSpirit_E5_vl2_rr2.wav
pitch_keycenter=88
lokey=86
hikey=89
tune=1
volume=0.851855

<region>
lovel=78
hivel=127
sample=Saxello/Non-Vibrato/BrettSaxello_SusNV_MainSpirit_E5_vl3_rr1.wav
pitch_keycenter=88
lokey=86
hikey=89
volume=-4.102987

